<?xml version="1.0" encoding="UTF-8"?>
<svg width="144px" height="35px" viewBox="0 0 144 35" version="1.1" xmlns="http://www.w3.org/2000/svg" xmlns:xlink="http://www.w3.org/1999/xlink">
    <!-- Generator: Sketch 51.1 (57501) - http://www.bohemiancoding.com/sketch -->
    <title>Group 13</title>
    <desc>Created with Sketch.</desc>
    <defs>
        <polygon id="path-1" points="7.36842105e-05 0.0476595745 27.6073368 0.0476595745 27.6073368 34.9996277 7.36842105e-05 34.9996277"></polygon>
        <polygon id="path-3" points="0 35 144 35 144 0 0 0"></polygon>
    </defs>
    <g id="Symbols" stroke="none" stroke-width="1" fill="none" fill-rule="evenodd">
        <g id="LOGO" transform="translate(-4.000000, -7.000000)">
            <g id="Group-13" transform="translate(4.000000, 7.000000)">
                <g id="Group-3">
                    <mask id="mask-2" fill="white">
                        <use xlink:href="#path-1"></use>
                    </mask>
                    <g id="Clip-2"></g>
                    <path d="M3.91491579,24.1436702 C6.27428421,26.6294149 9.9386,28.7093085 14.5563895,28.7093085 C18.4719684,28.7093085 20.3789158,26.8319681 20.3789158,24.9039894 C20.3789158,22.3683511 17.4683895,21.5067553 13.6029158,20.5930319 C8.13186316,19.3240957 1.10386316,17.8027128 1.10386316,10.2449468 C1.10386316,4.61292553 5.92281053,0.047287234 13.8033368,0.047287234 C19.1240737,0.047287234 23.5414421,1.67069149 26.8542842,4.76558511 L22.8886,10.0416489 C20.1784947,7.50452128 16.5642842,6.33835106 13.3015474,6.33835106 C10.0889158,6.33835106 8.38238947,7.75845745 8.38238947,9.78771277 C8.38238947,12.0701596 11.1934421,12.7805851 15.0589158,13.6943085 C20.5800737,14.9617553 27.6073368,16.6357979 27.6073368,24.1436702 C27.6073368,30.3334574 23.2408105,34.9996277 14.2049158,34.9996277 C7.78038947,34.9996277 3.1626,32.8184574 7.36842105e-05,29.6222872 L3.91491579,24.1436702 Z" id="Fill-1" fill="#FFFFFF" mask="url(#mask-2)"></path>
                </g>
                <path d="M33.2105981,28.2631579 L33.2105981,15.4023225 L29,15.4023225 L29,9.73684211 L33.2105981,9.73684211 L33.2105981,3 L39.947555,3 L39.947555,9.73684211 L45.1053445,9.73684211 L45.1053445,15.4023225 L39.947555,15.4023225 L39.947555,26.5287507 C39.947555,28.0601236 40.7896746,29.233377 42.2629976,29.233377 C43.262725,29.233377 44.210689,28.8752575 44.5792129,28.5186364 L46,33.4184304 C44.9995001,34.2852594 43.2101891,35 40.4211507,35 C35.7369569,35 33.2105981,32.652744 33.2105981,28.2631579" id="Fill-4" fill="#FFFFFF"></path>
                <path d="M64.7636149,25.3586878 C63.732027,23.923068 61.7676126,23.2048817 59.7541779,23.2048817 C57.2995609,23.2048817 55.2854053,24.5900628 55.2854053,26.947882 C55.2854053,29.2560153 57.2995609,30.5892521 59.7541779,30.5892521 C61.7676126,30.5892521 63.732027,29.8718186 64.7636149,28.435446 L64.7636149,25.3586878 Z M64.7636149,31.8208588 C63.1430631,33.8203376 60.3438626,35 57.2498198,35 C53.4687725,35 49,32.3335264 49,26.7950604 C49,20.9998842 53.4687725,18.8972696 57.2498198,18.8972696 C60.3928829,18.8972696 63.1920834,19.9226047 64.7636149,21.9228364 L64.7636149,18.486985 C64.7636149,15.9740858 62.70116,14.3329473 59.5580969,14.3329473 C57.0047185,14.3329473 54.6474212,15.3070909 52.6332656,17.2553783 L50.2766892,12.8973275 C53.1739301,10.2301011 56.906678,9 60.638705,9 C66.0403041,9 71,11.256189 71,18.3838492 L71,34.3849495 L64.7636149,34.3849495 L64.7636149,31.8208588 Z" id="Fill-6" fill="#FFFFFF"></path>
                <path d="M90.041281,29.175747 C93.8166322,29.175747 96.3158084,26.2889696 96.3158084,21.9591819 C96.3158084,17.6293942 93.8166322,14.6911618 90.041281,14.6911618 C87.9495222,14.6911618 85.5514514,15.9275955 84.479734,17.5771825 L84.479734,26.3918796 C85.5514514,27.9907684 87.9495222,29.175747 90.041281,29.175747 Z M78,0 L84.479734,0 L84.479734,12.6798763 C86.4187112,10.1540407 89.1740211,8.86615212 92.0821126,8.86615212 C98.3573889,8.86615212 103,13.8141566 103,21.9591819 C103,30.2585722 98.3064618,35 92.0821126,35 C89.122345,35 86.4187112,33.6606564 84.479734,31.2384875 L84.479734,34.3825399 L78,34.3825399 L78,0 Z" id="Fill-8" fill="#FFFFFF"></path>
                <mask id="mask-4" fill="white">
                    <use xlink:href="#path-3"></use>
                </mask>
                <g id="Clip-11"></g>
                <polygon id="Fill-10" fill="#FFFFFF" mask="url(#mask-4)" points="108 34 115 34 115 0 108 0"></polygon>
                <path d="M125.656522,19.6666474 L137.749254,19.6666474 C137.597088,17.3080754 135.971745,14.1793728 131.702888,14.1793728 C127.689134,14.1793728 125.9616,17.2049396 125.656522,19.6666474 M131.702888,9 C139.020289,9 144,14.538466 144,22.6410227 L144,24.0773953 L125.757966,24.0773953 C126.164489,27.2060978 128.654344,29.8206272 132.820265,29.8206272 C135.107232,29.8206272 137.800722,28.8984278 139.376089,27.3596722 L142.221745,31.5641486 C139.731889,33.8722819 135.921023,35 132.10941,35 C124.639844,35 119,29.9237629 119,21.9747807 C119,14.7951762 124.234067,9 131.702888,9" id="Fill-12" fill="#FFFFFF" mask="url(#mask-4)"></path>
            </g>
        </g>
    </g>
</svg>